<svg width="32" height="32" viewBox="0 0 32 32" fill="none" xmlns="http://www.w3.org/2000/svg">
<path fill-rule="evenodd" clip-rule="evenodd" d="M16.0348 2.66669C8.68942 2.66669 2.73608 8.62002 2.73608 15.9654C2.73608 21.84 6.54542 26.8254 11.8308 28.5854C12.4961 28.7054 12.7361 28.296 12.7361 27.944C12.7361 27.628 12.7254 26.7907 12.7214 25.6827C9.02142 26.4854 8.24008 23.8987 8.24008 23.8987C7.63742 22.3627 6.76408 21.9534 6.76408 21.9534C5.55742 21.128 6.85608 21.1467 6.85608 21.1467C8.19208 21.24 8.89208 22.5174 8.89208 22.5174C10.0788 24.5494 12.0068 23.9627 12.7614 23.6227C12.8828 22.7627 13.2294 22.176 13.6081 21.844C10.6561 21.5094 7.55208 20.368 7.55208 15.2707C7.55208 13.8214 8.07075 12.632 8.91742 11.704C8.78275 11.3667 8.32275 10.0134 9.04942 8.18402C9.04942 8.18402 10.1654 7.82535 12.7054 9.54535C13.7902 9.25025 14.9092 9.09961 16.0334 9.09735C17.1577 9.09918 18.2767 9.24982 19.3614 9.54535C21.9028 7.82402 23.0174 8.18402 23.0174 8.18402C23.7441 10.0134 23.2881 11.3667 23.1494 11.704C24.0028 12.632 24.5148 13.82 24.5148 15.2707C24.5148 20.3814 21.4081 21.504 18.4454 21.8334C18.9188 22.244 19.3454 23.0547 19.3454 24.2947C19.3454 26.0734 19.3294 27.508 19.3294 27.944C19.3294 28.3 19.5668 28.7134 20.2454 28.5827C25.5281 26.82 29.3334 21.8387 29.3334 15.9654C29.3334 8.62002 23.3801 2.66669 16.0348 2.66669Z" fill="#49525A"/>
</svg>
