<svg width="311" height="248" viewBox="0 0 311 248" fill="none" xmlns="http://www.w3.org/2000/svg">
<g clip-path="url(#clip0_5_75)">
<path d="M262.1 237.45C263.325 237.526 264.001 236.004 263.074 235.117L262.982 234.751C262.994 234.721 263.006 234.692 263.019 234.663C263.749 232.92 265.76 232.094 267.507 232.817C273.028 235.1 267.199 240.347 267.637 243.897C267.79 245.122 272.589 245.19 272.318 246.392C274.869 240.812 276.211 234.718 276.209 228.591C276.208 227.052 276.124 225.512 275.951 223.977C275.809 222.72 275.613 221.472 275.36 220.235C273.991 213.549 271.029 207.182 266.758 201.864C264.706 200.743 265.958 198.988 264.923 196.886C264.552 196.128 261.238 196.111 261.1 195.28C261.248 195.299 263.39 193.074 262.683 191.973C262.217 191.249 262.362 190.327 262.96 189.708C263.019 189.648 263.074 189.584 263.125 189.515C264.892 187.117 267.327 187.535 268.6 190.792C271.317 192.162 271.344 194.436 269.678 196.624C268.618 198.016 268.473 199.899 267.543 201.389C267.639 201.511 267.739 201.63 267.834 201.752C269.59 204.004 271.109 206.424 272.39 208.966C272.027 206.14 272.56 202.735 273.469 200.54C274.512 198.021 276.474 195.903 278.193 193.724C280.246 191.122 284.423 192.303 284.786 195.597C284.79 195.629 284.793 195.66 284.796 195.692C284.542 195.836 284.293 195.988 284.05 196.149C282.664 197.067 283.144 199.217 284.787 199.47L284.824 199.476C284.733 200.391 281.486 203.274 281.256 204.167C283.453 212.65 281.809 213.771 275.052 213.912L274.698 214.418C275.338 216.259 275.853 218.145 276.24 220.055C276.605 221.828 276.858 223.62 277 225.42C277.177 227.691 277.163 229.973 276.972 232.24L276.983 232.16C277.469 229.663 278.823 227.33 280.791 225.713C283.721 223.304 287.863 222.415 291.025 220.478C292.547 219.545 294.498 220.749 294.233 222.515L294.22 222.599C293.749 222.791 293.29 223.013 292.846 223.262C292.591 223.406 292.342 223.559 292.099 223.72C290.712 224.638 291.193 226.788 292.837 227.04L292.874 227.046C292.901 227.05 292.924 227.053 292.95 227.057C292.143 228.976 284.453 231.683 283.045 233.219C281.675 240.629 282.348 240.409 276.044 238.253H276.04C275.352 241.256 274.346 244.19 273.053 246.986L262.371 246.989C262.333 246.871 262.298 246.748 262.264 246.629C263.252 246.69 264.247 246.632 265.22 246.452C264.427 245.48 263.634 244.5 262.841 243.527C262.822 243.508 262.807 243.489 262.791 243.47L262.779 243.455L261.679 239.834C261.766 239.03 261.908 238.234 262.1 237.45Z" fill="#6ABEA7"/>
<path d="M149.222 246.902L54.7038 246.935C49.9554 246.937 45.7019 244.482 43.3263 240.37C42.1383 238.313 41.5442 236.057 41.5435 233.801C41.5427 231.545 42.1355 229.288 43.3218 227.231L90.5511 141.229C92.9242 137.114 97.1759 134.657 101.924 134.656C106.673 134.654 110.926 137.108 113.302 141.221L160.597 227.201C161.782 229.252 162.374 231.506 162.375 233.761C162.374 236.016 161.782 238.272 160.595 240.329C158.223 244.443 153.971 246.901 149.222 246.902ZM42.7316 233.799C42.7314 235.853 53.1612 231.428 54.2418 233.298C56.4031 237.04 50.3833 245.751 54.7034 245.749C54.7034 245.749 157.41 243.48 159.569 239.737C160.648 237.865 161.187 235.812 161.186 233.759C161.186 231.707 160.645 229.654 159.564 227.784L112.269 141.804C110.114 138.073 106.245 135.84 101.925 135.842C97.6067 135.843 42.7317 231.745 42.7316 233.799Z" fill="#3F3D56"/>
<path d="M150.272 245.716C149.087 248.088 204.577 247.359 205.233 247.359C205.233 247.359 220.829 247.014 221.157 246.446C221.321 246.162 221.403 245.85 221.402 245.538C221.402 245.227 221.32 244.915 221.156 244.631L213.974 231.575C213.647 231.008 213.059 230.669 212.403 230.669C212.376 230.669 212.336 230.693 212.284 230.74C202.703 239.304 190.896 244.965 178.048 245.156C164.387 245.36 150.347 245.566 150.272 245.716Z" fill="#3F3D56"/>
<path d="M4.43684e-08 247.295C0.000136378 247.686 0.31442 248 0.705655 248L310.295 247.893C310.686 247.893 311 247.578 311 247.187C311 246.796 310.686 246.482 310.294 246.482L0.705169 246.589C0.313934 246.589 -0.000136289 246.903 4.43684e-08 247.295Z" fill="#CCCCCC"/>
<path d="M239.4 243.87L234.039 243.871L231.481 223.187L239.394 223.185L239.4 243.87Z" fill="#EFC0C7"/>
<path d="M221.031 243.755C220.865 244.036 220.777 244.944 220.777 245.271C220.777 246.276 221.592 247.091 222.597 247.09L239.2 247.084C239.886 247.084 240.442 246.528 240.441 245.842L240.441 245.151C240.441 245.151 241.262 243.072 239.57 240.512C239.57 240.512 237.469 242.518 234.327 239.378L233.401 237.7L226.699 242.606L222.983 243.065C222.17 243.165 221.449 243.05 221.031 243.755Z" fill="#2F2E41"/>
<path d="M218.843 226.179L213.764 227.897L204.719 209.122L212.214 206.585L218.843 226.179Z" fill="#EFC0C7"/>
<path d="M201.405 231.954C201.337 232.274 201.545 233.162 201.649 233.472C201.972 234.424 203.004 234.934 203.956 234.612L219.683 229.288C220.333 229.068 220.681 228.363 220.461 227.713L220.239 227.058C220.239 227.058 220.351 224.827 217.929 222.943C217.929 222.943 216.581 225.516 212.599 223.548L211.184 222.255L206.406 229.05L203.033 230.675C202.295 231.031 201.575 231.153 201.405 231.954Z" fill="#2F2E41"/>
<path d="M210.561 106.186L200.162 140.634L187.886 171.621L207.322 215.873L214.528 212.666L205.905 172.015L223.989 144.431L232.427 230.542L239.635 230.139L249.409 126.198L250.802 103.568L210.561 106.186Z" fill="#2F2E41"/>
<path d="M241.968 29.8742L226.753 32.6832L225.554 39.4925L216.346 43.9015L211.558 93.9691C211.558 93.9691 203.553 104.386 209.961 107.588L250.802 103.568C250.802 103.568 252.802 96.1625 250.8 95.4599C248.797 94.7573 248.791 77.0678 248.791 77.0678L257.988 40.6829L244.372 35.8813L241.968 29.8742Z" fill="#E6E6E6"/>
<path d="M232.994 29.7428C239.779 29.7428 245.28 24.2405 245.28 17.453C245.28 10.6656 239.779 5.16329 232.994 5.16329C226.208 5.16329 220.707 10.6656 220.707 17.453C220.707 24.2405 226.208 29.7428 232.994 29.7428Z" fill="#EFC0C7"/>
<path d="M241.13 19.2771C240.149 19.814 241.079 22.3773 240.467 22.5989C239.758 22.855 237.176 19.9146 237.144 16.6212C237.134 15.6244 237.364 15.1458 237.143 13.964C236.855 12.4181 235.969 10.5947 235.15 10.6431C234.664 10.6718 234.189 11.3589 234.154 11.9721C234.104 12.8315 234.939 13.1697 234.819 13.6326C234.59 14.5144 231.085 15.1231 229.838 13.6344C228.859 12.4672 229.61 10.418 229.172 10.313C228.85 10.2357 228.504 11.3639 227.181 12.6388C226.682 13.1191 225.941 13.8335 225.521 13.6358C224.914 13.3503 225.355 11.3376 225.188 11.3109C225.05 11.2888 224.963 12.7035 224.193 13.9685C223.203 15.5937 221.161 16.8463 220.209 16.2949C219.625 15.9571 219.579 15.0166 219.544 14.3022C219.47 12.7973 217.284 9.3357 217.849 7.7258C219 4.44916 220.973 6.75888 221.865 5.66539C223.073 4.18506 224.157 4.98096 226.181 3.3388C228.159 1.73458 228.176 0.122205 229.501 0.0160968C230.694 -0.0794577 231.118 1.1932 232.49 1.01153C233.652 0.857624 233.905 -0.129458 234.814 0.0142528C235.646 0.145821 235.701 1.01539 236.807 1.34219C237.513 1.55082 237.668 1.24884 238.467 1.34161C240.13 1.53464 241.247 3.0497 241.456 3.33351C242.263 4.4276 241.95 4.88897 242.785 5.99029C243.506 6.94002 245.103 6.53672 245.703 7.01107C247.664 8.561 248.507 11.4194 248.524 14.6773C248.536 16.9559 248.239 18.1072 247.576 20.9833C247.073 23.1673 244.742 25.9895 243.457 27.248C243.112 27.5858 242.145 28.5329 241.465 28.2452C240.82 27.9726 240.801 26.7465 240.8 26.5846C240.797 26.0279 240.945 25.339 242.127 23.5948C243.369 21.7626 243.862 21.5535 243.787 20.9369C243.654 19.847 241.911 18.8491 241.13 19.2771Z" fill="#2F2E41"/>
<path d="M198.273 133.857C197.89 137.06 199.232 139.854 201.27 140.098C203.308 140.341 205.27 137.942 205.653 134.738C205.82 133.336 205.657 132.012 205.25 130.947L206.7 117.353L200.308 116.808L199.557 130.267C198.91 131.207 198.44 132.455 198.273 133.857Z" fill="#EFC0C7"/>
<path d="M216.646 43.578C216.646 43.578 213.335 43.6251 211.142 47.9086C209.977 50.1848 203.743 92.7495 203.743 92.7495L198.001 127.618L207.783 127.667L215.405 94.646L221.817 75.4943L216.646 43.578Z" fill="#E6E6E6"/>
<path d="M244.173 128.74C243.236 131.827 244.069 134.813 246.033 135.409C247.997 136.006 250.348 133.986 251.285 130.899C251.695 129.548 251.766 128.216 251.551 127.096L255.356 113.965L249.158 112.31L246.065 125.43C245.264 126.242 244.583 127.389 244.173 128.74Z" fill="#EFC0C7"/>
<path d="M250.981 41.2861C250.981 41.2861 255.785 37.6797 259.791 43.2857C263.797 48.8917 265.415 94.9518 265.415 94.9518L254.213 123.393L245.803 120.592L253.799 85.7437L239.776 59.3137L250.981 41.2861Z" fill="#E6E6E6"/>
<path d="M129.505 227.936C153.403 227.936 172.776 208.558 172.776 184.653C172.776 160.749 153.403 141.37 129.505 141.37C105.607 141.37 86.2336 160.749 86.2336 184.653C86.2336 208.558 105.607 227.936 129.505 227.936Z" fill="#6ABEA7"/>
<path d="M129.512 211.186C131.707 211.186 133.485 209.407 133.485 207.212C133.485 205.017 131.707 203.238 129.512 203.238C127.318 203.238 125.539 205.017 125.539 207.212C125.539 209.407 127.318 211.186 129.512 211.186Z" fill="white"/>
<path d="M129.495 158.12C129.13 160.546 129.784 161.053 129.788 171.511C129.792 181.969 131.961 195.99 129.508 195.991C127.056 195.992 126.159 167.055 117.643 164.494C107.631 161.483 130.677 150.267 129.495 158.12Z" fill="white"/>
<path d="M71.4286 206.751L67.5192 215.014C72.2454 211.624 79.6275 208.702 85.5019 207.137C80.0284 204.492 73.3308 200.228 69.3295 196.006L71.5781 204.737C45.216 199.366 26.285 179.137 26.277 155.964L25.3247 155.636C25.3331 179.841 44.0022 201.268 71.4286 206.751Z" fill="#3F3D56"/>
</g>
<defs>
<clipPath id="clip0_5_75">
<rect width="311" height="248" fill="white"/>
</clipPath>
</defs>
</svg>
