<svg width="38" height="54" viewBox="0 0 38 54" fill="none" xmlns="http://www.w3.org/2000/svg">
<g filter="url(#filter0_d_3_19)">
<path fill-rule="evenodd" clip-rule="evenodd" d="M24.3958 25.6529C24.3524 25.9311 24.2466 26.1959 24.0863 26.4275C23.926 26.659 23.7154 26.8512 23.4703 26.9898C22.9766 27.3086 22.5447 27.468 22.1077 27.6274C21.177 27.9488 20.1974 28.2702 19.1613 28.643C18.0687 29.0157 17.0891 29.3885 16.215 29.6585C15.1249 30.0313 14.0888 30.3526 13.1041 30.7254C12.3633 31.0425 11.6674 31.4556 11.0345 31.9544C10.4458 32.4877 9.93212 33.0983 9.50734 33.7695C9.07027 34.515 8.79518 35.4766 8.79518 36.5975C8.79518 38.842 9.34022 40.5491 10.4329 41.6161C11.523 42.7396 13.5438 43.2718 16.5389 43.2718C19.5933 43.2718 21.6655 42.6856 22.7607 41.5107C23.8482 40.3357 24.3932 38.6826 24.3932 36.5487V25.6529H24.3958ZM16.5415 2C21.8891 2 25.815 3.01553 28.3217 5.09802C30.831 7.12908 32.0856 9.74119 32.0856 12.8366V39.2148C32.0856 40.2817 31.8696 41.4567 31.4891 42.737C31.1035 44.0225 30.3425 45.1949 29.1418 46.2592C27.9977 47.3313 26.4166 48.2389 24.3984 48.933C22.3802 49.6272 19.7629 50 16.5441 50C13.3304 50 10.708 49.6272 8.69234 48.933C6.6767 48.2389 5.09298 47.3313 3.9489 46.2592C2.8846 45.3001 2.07834 44.089 1.60418 42.737C1.21853 41.4592 1 40.2843 1 39.2174V35.001C1 32.7565 1.59904 30.674 2.79968 28.8563C4.00032 26.9898 5.68945 25.7095 7.8722 24.9073C8.96229 24.5345 10.2169 24.1618 11.6335 23.681C13.0527 23.1976 14.3588 22.7169 15.6699 22.2927C16.9811 21.8633 18.1252 21.434 19.1048 21.0586C19.6959 20.8221 20.2963 20.6094 20.9044 20.421L21.8866 19.9402C22.2722 19.7268 22.6501 19.4055 23.0332 18.9787C23.4137 18.5545 23.7402 18.0737 24.0153 17.5389C24.306 16.9599 24.4557 16.3203 24.4524 15.6724V13.9627C24.4564 13.3361 24.3249 12.716 24.0667 12.145C23.8508 11.5023 23.4137 10.9161 22.8147 10.3839C22.2156 9.84917 21.3955 9.42239 20.416 9.09845C19.4338 8.78222 18.1278 8.62025 16.6521 8.62025C13.5977 8.62025 11.5795 9.21157 10.4894 10.4354C9.5639 11.5049 9.01885 12.8392 8.91087 14.3329C8.91087 14.6543 8.63835 14.8677 8.30927 14.8677L1.65817 14.9757C1.50018 14.9764 1.34831 14.9146 1.23563 14.8039C1.12296 14.6931 1.05859 14.5423 1.05656 14.3844V12.8418C1.05656 11.3429 1.33166 9.95458 1.93069 8.62025C2.5323 7.28334 3.46042 6.16497 4.71248 5.20086C5.96711 4.24189 7.60482 3.44231 9.56647 2.90755C11.4767 2.26481 13.8214 2 16.5466 2H16.5415Z" fill="#6ABEA7"/>
</g>
<defs>
<filter id="filter0_d_3_19" x="0" y="0" width="37.0856" height="54" filterUnits="userSpaceOnUse" color-interpolation-filters="sRGB">
<feFlood flood-opacity="0" result="BackgroundImageFix"/>
<feColorMatrix in="SourceAlpha" type="matrix" values="0 0 0 0 0 0 0 0 0 0 0 0 0 0 0 0 0 0 127 0" result="hardAlpha"/>
<feOffset dx="2" dy="1"/>
<feGaussianBlur stdDeviation="1.5"/>
<feComposite in2="hardAlpha" operator="out"/>
<feColorMatrix type="matrix" values="0 0 0 0 1 0 0 0 0 1 0 0 0 0 1 0 0 0 0.8 0"/>
<feBlend mode="normal" in2="BackgroundImageFix" result="effect1_dropShadow_3_19"/>
<feBlend mode="normal" in="SourceGraphic" in2="effect1_dropShadow_3_19" result="shape"/>
</filter>
</defs>
</svg>
